<svg xmlns="http://www.w3.org/2000/svg" xmlns:xlink="http://www.w3.org/1999/xlink" viewBox="0,0,256,256" width="64px" height="64px"><g fill="none" fill-rule="nonzero" stroke="none" stroke-width="none" stroke-linecap="none" stroke-linejoin="none" stroke-miterlimit="10" stroke-dasharray="" stroke-dashoffset="0" font-family="none" font-weight="none" font-size="none" text-anchor="none" style="mix-blend-mode: normal"><g transform="scale(4,4)"><ellipse cx="32" cy="61" rx="20" ry="3" fill="#000000" stroke="none" stroke-width="1" stroke-linecap="butt" stroke-linejoin="miter" opacity="0.3"></ellipse><path d="M42.963,30l8.136,-8.135c1.562,-1.562 1.562,-4.095 0,-5.657l-5.306,-5.306c-1.562,-1.562 -4.095,-1.562 -5.657,0l-8.136,8.136l-8.136,-8.136c-1.562,-1.562 -4.095,-1.562 -5.657,0l-5.306,5.306c-1.562,1.562 -1.562,4.095 0,5.657l8.136,8.135l-8.135,8.135c-1.562,1.562 -1.562,4.095 0,5.657l5.305,5.306c1.562,1.562 4.095,1.562 5.657,0l8.136,-8.135l8.136,8.135c1.562,1.562 4.095,1.562 5.657,0l5.305,-5.306c1.562,-1.562 1.562,-4.095 0,-5.657z" fill="#3bc9f3" stroke="none" stroke-width="1" stroke-linecap="butt" stroke-linejoin="miter"></path><path d="M40.135,49.098c1.562,1.562 4.095,1.562 5.657,0l5.306,-5.306c1.562,-1.562 1.562,-4.095 0,-5.657l-8.136,-8.135l3.535,-3.535v0c-0.976,-0.977 -2.255,-1.465 -3.535,-1.465c-1.224,0 -2.448,0.447 -3.406,1.34c-2.084,1.943 -1.973,5.352 0.042,7.366l7.257,7.256l-3.892,3.892l-7.275,-7.274c-1.847,-1.847 -4.846,-2.146 -6.86,-0.484c-2.31,1.907 -2.432,5.334 -0.365,7.402l3.536,-3.536z" fill="#000000" stroke="none" stroke-width="1" stroke-linecap="butt" stroke-linejoin="miter" opacity="0.15"></path><path d="M23.864,10.902c-1.562,-1.562 -4.095,-1.562 -5.657,0l-5.306,5.306c-1.562,1.562 -1.562,4.095 0,5.657l8.136,8.135l-3.535,3.535v0c0.976,0.977 2.255,1.465 3.535,1.465c1.224,0 2.448,-0.447 3.406,-1.34c2.084,-1.943 1.973,-5.352 -0.042,-7.366l-7.257,-7.256l3.892,-3.892l7.275,7.274c1.847,1.846 4.846,2.146 6.86,0.484c2.31,-1.907 2.432,-5.334 0.365,-7.402l-3.536,3.536z" fill="#ffffff" stroke="none" stroke-width="1" stroke-linecap="butt" stroke-linejoin="miter" opacity="0.3"></path><path d="M18.5,15.5l2.5,-2.5l2.5,2.5" fill="none" stroke="#ffffff" stroke-width="3" stroke-linecap="round" stroke-linejoin="round"></path></g></g></svg>