<svg xmlns="http://www.w3.org/2000/svg" xmlns:xlink="http://www.w3.org/1999/xlink" viewBox="0,0,256,256" width="64px" height="64px"><g fill="none" fill-rule="nonzero" stroke="none" stroke-width="1" stroke-linecap="butt" stroke-linejoin="miter" stroke-miterlimit="10" stroke-dasharray="" stroke-dashoffset="0" font-family="none" font-weight="none" font-size="none" text-anchor="none" style="mix-blend-mode: normal"><g transform="scale(4,4)"><path d="M54,16.5c0,1.24 -0.5,2.37 -1.32,3.18c-0.81,0.82 -1.94,1.32 -3.18,1.32h-35c-2.49,0 -4.5,-2.01 -4.5,-4.5c0,-1.18 0.45,-2.26 1.21,-3.06c0.03,-0.04 0.07,-0.08 0.11,-0.12c0.81,-0.82 1.94,-1.32 3.18,-1.32h35c2.49,0 4.5,2.01 4.5,4.5z" fill="#3bc9f3"></path><path d="M36,12c0,2.76 -2.24,5 -5,5h-15c-1.38,0 -2.63,-0.56 -3.54,-1.46c-0.57,-0.58 -1.01,-1.3 -1.25,-2.1c0.03,-0.04 0.07,-0.08 0.11,-0.12c0.81,-0.82 1.94,-1.32 3.18,-1.32z" fill="#ffffff" opacity="0.3"></path><ellipse cx="32" cy="61" rx="20" ry="3" fill="#000000" opacity="0.3"></ellipse><path d="M49.5,51h-35c-2.485,0 -4.5,-2.015 -4.5,-4.5v0c0,-2.485 2.015,-4.5 4.5,-4.5h35c2.485,0 4.5,2.015 4.5,4.5v0c0,2.485 -2.015,4.5 -4.5,4.5z" fill="#3bc9f3"></path><path d="M49.5,36h-35c-2.485,0 -4.5,-2.015 -4.5,-4.5v0c0,-2.485 2.015,-4.5 4.5,-4.5h35c2.485,0 4.5,2.015 4.5,4.5v0c0,2.485 -2.015,4.5 -4.5,4.5z" fill="#3bc9f3"></path><path d="M49.5,42h-2.98c-0.08,0.89 0.08,1.79 0.45,2.59c0.31,0.66 -0.18,1.41 -0.9,1.41h-9.07c-2.76,0 -4.99,2.23 -5,5h17.5c1.24,0 2.37,-0.5 3.18,-1.32c0.82,-0.81 1.32,-1.94 1.32,-3.18c0,-2.49 -2.01,-4.5 -4.5,-4.5z" fill="#000000" opacity="0.15"></path><path d="M20.5,17h-4c-0.829,0 -1.5,-0.671 -1.5,-1.5c0,-0.829 0.671,-1.5 1.5,-1.5h4c0.829,0 1.5,0.671 1.5,1.5c0,0.829 -0.671,1.5 -1.5,1.5z" fill="#ffffff"></path></g></g></svg>